<mxfile host="app.diagrams.net" modified="2023-08-04T06:31:01.380Z" agent="Mozilla/5.0 (Macintosh; Intel Mac OS X 10_15_7) AppleWebKit/537.36 (KHTML, like Gecko) Chrome/114.0.0.0 Safari/537.36" etag="gO-P_XVnHcJOzYivU0DP" version="21.6.6" type="github">
  <diagram name="第 1 页" id="TWCSjG3LiKkdkgoR08qG">
    <mxGraphModel dx="1306" dy="749" grid="1" gridSize="10" guides="1" tooltips="1" connect="1" arrows="1" fold="1" page="1" pageScale="1" pageWidth="827" pageHeight="1169" math="0" shadow="0">
      <root>
        <mxCell id="0" />
        <mxCell id="1" parent="0" />
        <mxCell id="i71ovHqp230RUhthxBKt-2" value="" style="shape=image;verticalLabelPosition=bottom;labelBackgroundColor=default;verticalAlign=top;aspect=fixed;imageAspect=0;image=https://intranetproxy.alipay.com/skylark/lark/0/2022/png/12756710/1645435027237-3cc42391-c6f9-4cee-ad1f-12a1944dc4c1.png;" parent="1" vertex="1">
          <mxGeometry y="20" width="1200" height="660" as="geometry" />
        </mxCell>
        <mxCell id="i71ovHqp230RUhthxBKt-3" value="" style="shape=image;verticalLabelPosition=bottom;labelBackgroundColor=default;verticalAlign=top;aspect=fixed;imageAspect=0;image=https://intranetproxy.alipay.com/skylark/lark/0/2022/png/12756710/1645435041275-1074d2c7-a620-45cc-abf7-f718aa9ab35b.png;" parent="1" vertex="1">
          <mxGeometry y="700" width="1200" height="647" as="geometry" />
        </mxCell>
        <mxCell id="i71ovHqp230RUhthxBKt-4" value="" style="shape=image;verticalLabelPosition=bottom;labelBackgroundColor=default;verticalAlign=top;aspect=fixed;imageAspect=0;image=https://intranetproxy.alipay.com/skylark/lark/0/2022/png/12756710/1645435056257-d77123c3-b372-469c-8502-12fa01c8ce3c.png;" parent="1" vertex="1">
          <mxGeometry y="1360" width="1200" height="757" as="geometry" />
        </mxCell>
        <mxCell id="CIW6ksv6lNtEN-uTF5Ux-1" value="&lt;pre style=&quot;background-color:#ffffff;color:#080808;font-family:&#39;JetBrains Mono&#39;,monospace;font-size:9.8pt;&quot;&gt;tmi_allot_timer_task&lt;/pre&gt;" style="rounded=0;whiteSpace=wrap;html=1;" vertex="1" parent="1">
          <mxGeometry x="300" y="2200" width="220" height="60" as="geometry" />
        </mxCell>
        <mxCell id="CIW6ksv6lNtEN-uTF5Ux-2" value="&lt;pre style=&quot;background-color:#ffffff;color:#080808;font-family:&#39;JetBrains Mono&#39;,monospace;font-size:9.8pt;&quot;&gt;tmi_distributed_db_task_queue&lt;/pre&gt;" style="rounded=0;whiteSpace=wrap;html=1;" vertex="1" parent="1">
          <mxGeometry x="590" y="2200" width="250" height="60" as="geometry" />
        </mxCell>
      </root>
    </mxGraphModel>
  </diagram>
</mxfile>
